<?xml version="1.0" standalone="no"?>
<!DOCTYPE svg PUBLIC "-//W3C//DTD SVG 20010904//EN"
 "http://www.w3.org/TR/2001/REC-SVG-20010904/DTD/svg10.dtd">
<svg version="1.0" xmlns="http://www.w3.org/2000/svg"
 width="422.000000pt" height="383.000000pt" viewBox="0 0 422.000000 383.000000"
 preserveAspectRatio="xMidYMid meet">

<g transform="translate(0.000000,383.000000) scale(0.100000,-0.100000)"
fill="#000000" stroke="none">
<path d="M3090 3079 c-264 -30 -553 -134 -778 -282 l-97 -63 -108 -12 c-59 -7
-147 -24 -195 -38 -118 -34 -293 -120 -388 -193 -89 -67 -414 -390 -414 -411
0 -8 88 -103 196 -211 l197 -197 -46 -59 c-69 -87 -131 -202 -166 -307 -33
-101 -65 -274 -55 -300 10 -25 50 -30 138 -17 170 26 353 104 486 206 l67 53
194 -194 c127 -127 201 -194 214 -194 30 0 378 355 442 450 28 41 64 102 80
135 68 134 123 334 123 449 0 46 7 61 66 151 172 264 269 554 293 870 13 171
11 176 -97 174 -42 -1 -111 -5 -152 -10z m147 -181 c-19 -319 -165 -681 -377
-938 -30 -36 -116 -128 -192 -206 -76 -77 -138 -148 -138 -156 0 -23 28 -48
53 -48 15 0 66 44 154 132 73 73 133 127 133 120 0 -32 -43 -177 -74 -250 -58
-138 -135 -243 -304 -415 l-156 -158 -75 76 -76 75 73 73 c62 63 73 79 70 103
-2 21 -11 31 -31 38 -26 9 -33 5 -105 -67 l-77 -77 -330 330 -330 330 295 296
c354 355 462 454 599 545 253 170 572 277 860 288 l34 1 -6 -92z m-1507 -623
l-345 -345 -75 76 -75 75 160 157 c250 245 384 321 675 381 3 1 -150 -154
-340 -344z m120 -956 c0 -16 -132 -104 -215 -144 -86 -42 -224 -85 -272 -85
-20 0 -22 4 -17 33 24 135 100 310 179 415 l48 64 139 -138 c76 -77 138 -142
138 -145z"/>
<path d="M2572 2631 c-128 -45 -196 -175 -158 -302 32 -110 125 -179 241 -179
77 0 130 24 181 83 107 121 77 303 -62 379 -68 37 -135 43 -202 19z m158 -108
c41 -24 63 -63 67 -117 13 -167 -216 -219 -281 -64 -24 58 -16 106 26 153 47
55 124 66 188 28z"/>
<path d="M2054 2126 c-52 -23 -110 -83 -134 -138 -69 -160 53 -342 230 -341
95 0 176 50 223 138 30 56 30 164 0 221 -25 47 -82 101 -129 120 -42 18 -150
17 -190 0z m177 -109 c122 -81 65 -271 -81 -271 -56 0 -91 20 -127 74 -63 91
12 220 127 220 32 0 58 -7 81 -23z"/>
<path d="M2402 1484 c-12 -8 -22 -26 -22 -38 0 -54 77 -64 95 -12 8 24 6 31
-14 47 -28 23 -31 23 -59 3z"/>
<path d="M1210 1560 c-14 -26 -5 -57 21 -71 43 -23 92 44 57 79 -20 20 -66 15
-78 -8z"/>
<path d="M953 1308 c-135 -135 -153 -164 -121 -196 28 -28 55 -11 191 127 108
109 136 142 131 157 -8 23 -33 44 -53 44 -8 0 -74 -59 -148 -132z"/>
<path d="M1767 852 c-103 -103 -187 -194 -187 -203 0 -21 32 -49 55 -49 11 0
96 77 202 182 187 186 205 212 171 246 -29 29 -55 10 -241 -176z"/>
<path d="M1353 738 c-69 -68 -129 -131 -135 -141 -13 -24 15 -67 44 -67 30 0
278 246 278 276 0 21 -33 54 -54 54 -5 0 -65 -55 -133 -122z"/>
</g>
</svg>
