<?xml version="1.0" standalone="no"?>
<!DOCTYPE svg PUBLIC "-//W3C//DTD SVG 20010904//EN"
 "http://www.w3.org/TR/2001/REC-SVG-20010904/DTD/svg10.dtd">
<svg version="1.0" xmlns="http://www.w3.org/2000/svg"
 width="417.000000pt" height="399.000000pt" viewBox="0 0 417.000000 399.000000"
 preserveAspectRatio="xMidYMid meet">

<g transform="translate(0.000000,399.000000) scale(0.100000,-0.100000)"
fill="#000000" stroke="none">
<path d="M1687 3063 c-4 -3 -7 -174 -7 -380 l0 -373 -450 0 -450 0 0 -522 c0
-472 2 -532 19 -614 33 -161 115 -308 237 -425 83 -79 144 -121 231 -161 413
-187 892 -10 1088 403 34 74 75 211 75 256 0 22 3 23 85 23 373 0 697 251 801
620 16 59 18 119 22 623 l3 557 -824 0 c-453 0 -827 -3 -830 -7z m1503 -595
c0 -505 -3 -529 -74 -673 -110 -223 -323 -361 -573 -373 l-103 -5 0 182 0 181
259 0 c143 0 262 4 265 9 10 15 -32 160 -61 214 -77 140 -228 229 -394 229
l-69 0 0 39 0 39 -300 0 -300 0 0 300 0 300 675 0 675 0 0 -442z m-912 -790
l-3 -483 -27 -73 c-39 -108 -84 -177 -169 -263 -62 -63 -93 -85 -170 -122
-120 -57 -180 -71 -304 -71 -188 2 -336 64 -471 198 -89 90 -129 152 -171 271
l-28 80 -3 473 -3 472 676 0 676 0 -3 -482z m352 381 c42 -19 130 -94 130
-111 0 -4 -72 -8 -160 -8 l-160 0 0 70 0 70 73 0 c51 0 85 -6 117 -21z"/>
<path d="M1984 2693 c4 -38 16 -87 27 -111 48 -98 178 -148 276 -107 94 39
137 103 149 218 l7 67 -82 0 -81 0 0 -55 c0 -62 -24 -95 -70 -95 -46 0 -70 33
-70 95 l0 55 -81 0 -82 0 7 -67z"/>
<path d="M2584 2693 c4 -38 16 -87 27 -111 48 -98 178 -148 276 -107 94 39
137 103 149 218 l7 67 -82 0 -81 0 0 -55 c0 -62 -24 -95 -70 -95 -46 0 -70 33
-70 95 l0 55 -81 0 -82 0 7 -67z"/>
<path d="M1212 1984 c-84 -42 -116 -95 -128 -209 l-7 -65 82 0 81 0 0 55 c0
62 24 95 70 95 46 0 70 -33 70 -95 l0 -55 81 0 82 0 -7 68 c-12 114 -55 178
-149 217 -55 23 -115 19 -175 -11z"/>
<path d="M1812 1984 c-84 -42 -116 -95 -128 -209 l-7 -65 82 0 81 0 0 55 c0
62 24 95 70 95 46 0 70 -33 70 -95 l0 -55 81 0 82 0 -7 68 c-12 114 -55 178
-149 217 -55 23 -115 19 -175 -11z"/>
<path d="M1156 1331 c-10 -15 32 -160 61 -214 76 -140 228 -229 393 -229 165
0 317 89 393 229 29 54 71 199 61 214 -3 5 -204 9 -454 9 -250 0 -451 -4 -454
-9z m704 -160 c0 -16 -91 -92 -133 -112 -59 -26 -176 -26 -237 2 -42 19 -130
94 -130 111 0 4 113 8 250 8 138 0 250 -4 250 -9z"/>
</g>
</svg>
