<?xml version="1.0" standalone="no"?>
<!DOCTYPE svg PUBLIC "-//W3C//DTD SVG 20010904//EN"
 "http://www.w3.org/TR/2001/REC-SVG-20010904/DTD/svg10.dtd">
<svg version="1.0" xmlns="http://www.w3.org/2000/svg"
 width="420.000000pt" height="420.000000pt" viewBox="0 0 420.000000 420.000000"
 preserveAspectRatio="xMidYMid meet">

<g transform="translate(0.000000,389.000000) scale(0.100000,-0.100000)"
fill="#000000" stroke="none">
<path d="M1040 3083 c-32 -12 -50 -38 -56 -83 l-6 -48 -45 -5 c-58 -6 -83 -30
-83 -77 0 -49 24 -70 82 -70 l45 0 6 -51 c8 -65 29 -89 77 -89 48 0 69 24 77
89 l6 51 47 0 c57 0 80 21 80 72 0 45 -26 69 -83 75 l-45 5 -6 48 c-8 61 -52
99 -96 83z"/>
<path d="M2122 3082 c-12 -2 -30 -15 -39 -28 -14 -22 -15 -52 -9 -262 l7 -237
-221 -149 c-122 -82 -225 -157 -231 -167 -32 -60 7 -99 131 -128 52 -13 103
-25 114 -28 15 -4 -109 -134 -577 -602 -328 -328 -600 -608 -606 -622 -14 -39
6 -69 127 -193 116 -117 151 -140 192 -125 14 6 293 278 621 606 l596 595 28
-113 c36 -144 71 -183 134 -150 9 5 84 109 166 231 l150 221 237 -7 c212 -6
240 -5 263 10 19 13 25 25 25 54 0 34 -11 48 -181 218 l-182 182 122 237 c126
247 139 286 103 318 -36 33 -74 21 -318 -104 l-236 -122 -182 180 c-99 99
-188 182 -196 185 -8 2 -25 2 -38 0z m398 -532 c13 0 93 36 178 80 85 44 156
79 158 77 2 -2 -32 -74 -76 -159 -44 -85 -80 -166 -80 -178 0 -17 40 -64 135
-160 l136 -136 -166 4 c-141 4 -168 2 -183 -11 -10 -9 -65 -86 -122 -172 -58
-85 -108 -155 -111 -155 -4 0 -27 84 -52 188 -32 131 -52 192 -65 202 -10 8
-100 35 -200 59 -100 24 -182 47 -182 51 0 3 70 53 155 110 85 57 162 112 171
122 15 15 16 39 12 184 l-5 165 137 -135 c97 -97 143 -136 160 -136z m-363
-543 c7 -7 15 -33 19 -57 l5 -45 -265 -262 c-145 -145 -267 -263 -270 -263 -3
0 -23 35 -45 77 l-41 78 248 248 247 248 45 -5 c24 -4 50 -12 57 -19z m-668
-665 l39 -77 -77 -83 c-42 -45 -81 -82 -87 -82 -5 0 -27 34 -48 77 l-37 76 83
84 c45 45 84 83 85 83 2 0 20 -35 42 -78z m-278 -291 l41 -73 -134 -128 -133
-129 -60 60 -60 59 145 145 c80 80 148 144 153 142 4 -1 26 -35 48 -76z"/>
<path d="M1620 2843 c-33 -12 -50 -37 -50 -73 0 -46 25 -70 72 -70 44 0 68 25
68 72 0 48 -48 86 -90 71z"/>
<path d="M731 2558 c-79 -29 -60 -138 24 -138 84 0 103 109 24 138 -14 6 -34
6 -48 0z"/>
<path d="M1300 2163 c-33 -12 -50 -37 -50 -73 0 -46 25 -70 72 -70 44 0 68 25
68 72 0 48 -48 86 -90 71z"/>
<path d="M2855 1520 c-77 -30 -57 -143 25 -143 41 0 73 32 73 73 0 50 -53 88
-98 70z"/>
<path d="M2300 1083 c-33 -12 -50 -37 -50 -73 0 -46 25 -70 72 -70 44 0 68 25
68 72 0 48 -48 86 -90 71z"/>
<path d="M2963 999 c-58 -11 -96 -32 -135 -79 -77 -89 -77 -211 1 -301 45 -54
100 -79 174 -79 101 0 170 43 213 135 40 84 28 174 -34 245 -55 66 -134 94
-219 79z m102 -174 c52 -51 15 -135 -60 -135 -46 0 -85 36 -85 80 0 44 39 80
85 80 25 0 44 -8 60 -25z"/>
</g>
</svg>
