<?xml version="1.0" standalone="no"?>
<!DOCTYPE svg PUBLIC "-//W3C//DTD SVG 20010904//EN"
 "http://www.w3.org/TR/2001/REC-SVG-20010904/DTD/svg10.dtd">
<svg version="1.0" xmlns="http://www.w3.org/2000/svg"
 width="461.000000pt" height="396.000000pt" viewBox="0 0 461.000000 396.000000"
 preserveAspectRatio="xMidYMid meet">

<g transform="translate(0.000000,396.000000) scale(0.100000,-0.100000)"
fill="#000000" stroke="none">
<path d="M2461 3188 c-50 -24 -101 -95 -101 -140 l0 -28 239 0 c151 0 250 4
272 11 71 24 115 73 133 152 l6 27 -252 0 c-239 0 -255 -1 -297 -22z"/>
<path d="M2122 2850 c-112 -30 -187 -74 -277 -165 -60 -59 -90 -100 -118 -156
-34 -70 -45 -109 -31 -109 3 0 132 41 287 90 154 50 288 90 298 90 9 0 143
-40 297 -90 154 -49 282 -90 286 -90 14 0 3 39 -31 109 -47 96 -169 222 -260
269 -134 70 -306 90 -451 52z"/>
<path d="M2077 2384 l-107 -35 2 -251 3 -251 112 -38 c61 -20 114 -35 117 -31
3 3 6 149 6 324 0 248 -3 318 -12 317 -7 0 -61 -16 -121 -35z"/>
<path d="M2350 2102 c0 -175 3 -321 6 -324 3 -4 56 11 117 31 l112 38 3 251 2
251 -110 35 c-60 20 -114 36 -120 36 -7 0 -10 -109 -10 -318z"/>
<path d="M1695 2261 l-110 -38 -3 -125 -3 -126 115 -36 c63 -20 117 -36 120
-36 3 0 6 90 6 200 0 110 -3 200 -7 199 -5 0 -57 -17 -118 -38z"/>
<path d="M2740 2101 c0 -111 3 -201 6 -201 3 0 57 16 120 36 l114 35 0 127 0
127 -108 34 c-59 18 -113 36 -119 38 -10 4 -13 -40 -13 -196z"/>
<path d="M1700 1729 c67 -178 214 -317 394 -375 115 -37 257 -37 371 0 133 42
244 123 319 234 41 60 100 181 92 190 -2 1 -137 -40 -300 -93 l-296 -95 -294
95 c-162 52 -297 95 -300 95 -3 0 3 -23 14 -51z"/>
<path d="M1778 1170 l-133 -99 -5 -143 c-6 -148 -5 -147 -68 -270 -2 -5 141
-8 317 -8 l321 0 0 260 c0 200 -3 261 -12 264 -7 2 -47 12 -88 21 -41 10 -103
30 -137 45 l-61 28 -134 -98z"/>
<path d="M2580 1238 c-35 -17 -100 -38 -145 -47 l-80 -18 -3 -261 -2 -262 321
0 c176 0 319 3 317 8 -64 125 -63 120 -66 269 l-4 142 -126 94 c-70 51 -131
95 -137 98 -5 4 -39 -7 -75 -23z"/>
<path d="M1152 1017 c-53 -20 -103 -66 -128 -121 -20 -43 -24 -67 -24 -148 l0
-98 153 0 c139 0 156 2 203 24 58 27 106 80 123 135 6 21 11 79 11 130 l0 91
-152 -1 c-91 0 -166 -5 -186 -12z"/>
<path d="M3070 939 c0 -51 5 -109 11 -130 17 -55 65 -108 123 -135 47 -22 64
-24 204 -24 l152 0 0 98 c0 115 -24 179 -84 229 -54 44 -97 53 -260 53 l-146
0 0 -91z"/>
</g>
</svg>
