<?xml version="1.0" standalone="no"?>
<!DOCTYPE svg PUBLIC "-//W3C//DTD SVG 20010904//EN"
 "http://www.w3.org/TR/2001/REC-SVG-20010904/DTD/svg10.dtd">
<svg version="1.0" xmlns="http://www.w3.org/2000/svg"
 width="406.000000pt" height="375.000000pt" viewBox="0 0 406.000000 375.000000"
 preserveAspectRatio="xMidYMid meet">

<g transform="translate(0.000000,375.000000) scale(0.100000,-0.100000)"
fill="#000000" stroke="none">
<path d="M1040 3021 c-24 -47 -4 -101 38 -101 16 0 33 5 40 12 16 16 16 80 0
96 -19 19 -66 15 -78 -7z"/>
<path d="M797 2882 c-23 -25 -21 -47 5 -72 24 -22 68 -26 86 -8 20 20 13 55
-14 77 -33 26 -56 27 -77 3z"/>
<path d="M1286 2875 c-29 -26 -31 -37 -16 -66 13 -23 57 -25 88 -3 28 20 30
69 3 84 -30 15 -46 12 -75 -15z"/>
<path d="M1025 2877 c-54 -22 -84 -48 -105 -91 -25 -53 -26 -108 0 -161 52
-108 193 -135 285 -54 42 37 59 85 53 154 -5 61 -39 115 -88 140 -41 21 -109
27 -145 12z m118 -118 c9 -12 17 -36 17 -54 0 -42 -26 -73 -67 -81 -27 -5 -37
-1 -63 24 -18 19 -30 41 -30 57 0 16 12 38 30 57 26 25 36 29 63 24 18 -3 40
-16 50 -27z"/>
<path d="M2630 2835 c-180 -81 -179 -344 2 -419 29 -13 77 -16 220 -16 172 0
185 1 220 23 177 107 87 378 -118 354 -42 -4 -52 -1 -98 31 -45 33 -58 37
-121 40 -47 1 -81 -3 -105 -13z m191 -135 c49 -52 68 -58 109 -35 41 23 78 18
111 -14 37 -38 38 -79 3 -121 l-27 -31 -178 3 c-172 3 -178 4 -203 27 -58 55
-55 144 5 196 24 20 42 25 82 25 48 0 53 -3 98 -50z"/>
<path d="M1745 2748 c-144 -50 -204 -232 -120 -360 20 -29 22 -38 11 -47 -10
-9 -22 -2 -52 28 -72 72 -160 77 -235 14 -40 -34 -59 -79 -59 -138 0 -26 -4
-54 -9 -64 -18 -33 -83 -425 -78 -470 7 -68 43 -97 144 -117 l83 -17 -5 -36
c-2 -20 -7 -73 -10 -118 -5 -76 -11 -93 -70 -214 -71 -143 -82 -183 -67 -229
11 -29 10 -30 -22 -30 -45 0 -464 -264 -473 -298 -6 -26 20 -62 45 -62 9 0
107 58 220 130 l204 130 379 0 380 0 174 165 173 165 213 0 c118 0 219 4 224
8 27 18 105 131 105 150 0 12 -11 29 -24 37 -32 21 -50 11 -95 -49 l-35 -46
-113 0 c-62 0 -113 2 -113 5 0 2 -38 135 -85 295 l-85 291 35 30 c91 80 47
220 -75 236 -38 5 -39 6 -60 75 -16 53 -27 71 -46 80 -21 10 -28 8 -47 -10
-21 -22 -21 -23 -6 -82 14 -54 14 -60 0 -60 -9 0 -55 39 -103 87 l-87 86 43
48 c49 55 71 117 64 182 -10 85 -66 163 -143 198 -44 21 -132 24 -180 7z m175
-123 c96 -92 35 -245 -97 -245 -136 0 -186 188 -70 261 47 30 127 22 167 -16z
m-415 -320 c48 -47 20 -125 -45 -125 -65 0 -93 78 -45 125 13 14 34 25 45 25
12 0 32 -11 45 -25z m337 -34 c13 -5 76 -59 140 -120 l116 -111 105 0 c83 0
109 -3 121 -16 12 -12 13 -20 6 -35 -10 -18 -23 -19 -203 -19 l-193 0 -30 31
c-16 17 -44 40 -62 51 -30 19 -34 19 -57 4 -37 -25 -31 -54 22 -102 46 -43 47
-43 28 -64 -40 -44 -250 -118 -272 -96 -6 6 39 293 59 371 5 22 17 49 26 59
40 45 138 69 194 47z m-379 -198 c35 -5 38 -8 33 -32 -3 -14 -17 -96 -31 -181
-14 -85 -31 -160 -38 -167 -16 -15 -117 4 -124 24 -5 13 20 178 48 322 11 53
11 53 42 47 18 -4 49 -9 70 -13z m796 -245 c6 -24 44 -157 85 -296 l74 -253
-26 3 c-19 2 -28 11 -34 33 -4 17 -60 98 -125 180 -118 149 -119 150 -201 190
l-82 40 5 58 c10 93 0 87 155 87 l138 0 11 -42z m-415 -100 c-3 -24 -1 -48 3
-55 5 -6 51 -32 103 -57 l95 -47 107 -134 c58 -74 109 -143 112 -153 9 -28
-10 -71 -38 -83 -47 -22 -71 -4 -176 130 l-102 128 -91 40 c-61 27 -125 46
-187 57 -79 13 -99 20 -117 41 -40 45 -28 95 21 95 46 0 177 35 223 59 21 11
41 20 45 21 4 0 5 -19 2 -42z m-271 -257 c23 -6 55 -12 70 -16 l28 -6 -6 -77
c-6 -69 -14 -93 -77 -227 -82 -173 -98 -195 -144 -195 -33 0 -74 36 -74 65 0
7 31 78 69 158 62 129 70 154 77 226 3 45 9 81 11 81 2 0 23 -4 46 -9z m406
-215 c51 -63 104 -124 119 -135 l27 -20 -75 -75 -74 -76 -183 0 c-101 0 -183
2 -183 4 0 1 34 74 75 160 56 118 75 167 75 199 0 23 3 59 6 79 l6 37 58 -29
c48 -24 72 -48 149 -144z"/>
<path d="M803 2596 c-24 -21 -26 -27 -18 -52 20 -55 115 -34 115 25 0 54 -49
68 -97 27z"/>
<path d="M1276 2604 c-23 -23 -19 -50 10 -73 48 -37 94 -22 94 30 0 47 -71 77
-104 43z"/>
<path d="M1046 2468 c-37 -53 -2 -121 52 -102 23 8 27 16 30 50 5 67 -49 100
-82 52z"/>
<path d="M3148 1782 c-26 -11 -108 -122 -108 -146 0 -28 18 -46 46 -46 15 0
38 17 65 50 42 50 42 50 104 50 65 0 85 11 85 46 0 37 -36 54 -110 53 -36 0
-73 -3 -82 -7z"/>
<path d="M2932 1528 c-20 -20 -14 -66 9 -79 33 -17 69 3 69 39 0 33 -16 52
-45 52 -12 0 -26 -5 -33 -12z"/>
</g>
</svg>
