<?xml version="1.0" standalone="no"?>
<!DOCTYPE svg PUBLIC "-//W3C//DTD SVG 20010904//EN"
 "http://www.w3.org/TR/2001/REC-SVG-20010904/DTD/svg10.dtd">
<svg version="1.0" xmlns="http://www.w3.org/2000/svg"
 width="321.000000pt" height="335.000000pt" viewBox="0 0 321.000000 335.000000"
 preserveAspectRatio="xMidYMid meet">

<g transform="translate(0.000000,335.000000) scale(0.100000,-0.100000)"
fill="#000000" stroke="none">
<path d="M1481 2968 c-43 -12 -77 -33 -122 -76 -36 -33 -37 -33 -80 -22 -156
42 -324 -86 -333 -254 -2 -41 -9 -62 -28 -85 -59 -69 -64 -188 -12 -264 38
-55 119 -97 186 -97 35 0 63 -8 101 -30 29 -16 76 -34 105 -40 l52 -12 0 -48
0 -48 -56 -18 c-74 -23 -114 -61 -114 -107 0 -49 32 -82 105 -112 60 -24 60
-25 57 -62 -5 -54 -30 -102 -80 -151 -35 -34 -43 -47 -38 -66 23 -92 173 45
199 182 l11 60 126 0 126 0 11 -60 c21 -111 131 -236 182 -208 32 17 27 55
-12 84 -42 32 -84 109 -89 159 -3 37 -3 38 57 62 73 30 105 63 105 112 0 46
-39 82 -114 108 l-56 19 0 47 0 47 41 7 c49 8 92 26 134 55 19 12 46 20 74 20
133 0 231 92 231 218 0 59 -12 94 -47 141 -19 25 -27 48 -29 85 -7 170 -169
295 -333 257 -44 -10 -45 -9 -94 35 -73 65 -173 89 -266 62z m169 -101 c64
-34 68 -46 31 -97 -41 -57 -39 -94 5 -98 26 -3 35 3 57 36 78 118 266 104 328
-25 17 -36 20 -56 16 -100 -5 -51 -4 -57 22 -82 40 -36 51 -63 51 -115 0 -88
-90 -150 -175 -120 -48 16 -71 39 -88 88 -16 48 -39 66 -64 50 -39 -24 -22
-105 34 -165 l24 -26 -41 -17 c-83 -33 -166 -17 -238 48 -22 20 -46 36 -54 36
-8 0 -27 -14 -44 -31 -61 -65 -146 -84 -238 -53 l-47 16 24 27 c28 30 46 61
57 102 10 35 -13 71 -42 67 -22 -3 -24 -7 -52 -71 -21 -49 -68 -77 -128 -77
-38 0 -54 6 -82 30 -69 61 -70 137 -5 202 36 36 39 42 33 78 -14 86 29 164
111 201 83 38 184 11 232 -62 26 -40 57 -51 81 -27 19 19 14 42 -19 88 -37 51
-33 63 31 97 27 15 60 23 90 23 30 0 63 -8 90 -23z m-60 -717 c16 -11 45 -27
64 -35 l36 -15 0 -144 c0 -168 10 -156 -130 -156 -140 0 -130 -11 -130 154 l0
143 50 23 c28 13 56 30 62 37 14 17 15 17 48 -7z m-240 -285 c0 -38 -11 -43
-55 -23 -32 14 -32 24 3 42 42 23 52 20 52 -19z m470 20 c37 -19 38 -28 5 -43
-44 -20 -55 -15 -55 23 0 39 8 42 50 20z"/>
<path d="M1142 2704 c-63 -44 -70 -164 -9 -164 32 0 47 18 47 56 0 32 13 44
50 44 27 0 44 34 30 60 -13 25 -85 28 -118 4z"/>
<path d="M998 1818 c-97 -93 -179 -231 -220 -374 -33 -113 -33 -315 0 -427 81
-282 297 -494 582 -573 91 -25 309 -25 400 0 378 104 627 443 607 826 -11 205
-83 373 -225 523 -55 57 -85 70 -110 45 -21 -21 -13 -43 29 -83 70 -68 180
-237 165 -253 -3 -3 -31 0 -61 7 -70 16 -129 60 -178 134 -38 57 -61 69 -85
45 -32 -32 16 -122 104 -194 48 -39 98 -57 236 -88 24 -5 27 -12 34 -62 12
-103 -1 -262 -30 -344 -56 -158 -172 -304 -305 -381 l-62 -37 -56 34 c-70 42
-143 58 -263 58 -120 0 -193 -16 -262 -58 l-55 -33 -37 19 -38 19 4 127 c3
125 4 128 42 206 40 80 54 151 42 202 -4 14 -31 52 -60 83 -29 31 -58 66 -65
78 -15 30 -14 87 4 153 27 101 16 171 -39 243 -33 43 -33 44 -15 66 23 28 24
45 3 65 -24 24 -37 20 -86 -26z m37 -171 c30 -52 31 -89 8 -201 -15 -76 -15
-85 1 -140 13 -44 29 -70 66 -107 84 -84 84 -93 18 -225 -36 -73 -40 -89 -45
-182 l-6 -103 -29 28 c-47 44 -116 145 -148 217 -86 188 -82 434 8 612 29 57
87 144 97 144 2 0 16 -20 30 -43z m626 -1067 c61 -11 109 -29 109 -40 0 -27
-254 -41 -355 -20 -65 13 -75 24 -37 39 70 29 192 38 283 21z"/>
<path d="M1840 1374 c-36 -8 -113 -18 -173 -23 -93 -7 -110 -11 -133 -32 -50
-47 -69 -114 -52 -192 13 -62 44 -98 144 -164 92 -60 117 -97 129 -191 18
-136 138 -142 220 -12 32 50 52 128 60 225 6 65 14 92 41 142 26 47 34 73 34
113 0 47 -4 56 -38 90 -37 37 -93 61 -142 59 -14 -1 -54 -7 -90 -15z m164 -95
c34 -27 33 -44 -9 -126 -28 -56 -36 -86 -45 -171 -11 -113 -28 -163 -67 -204
-34 -35 -43 -35 -43 0 0 43 -25 119 -53 162 -15 21 -61 61 -111 93 -50 34 -92
69 -101 86 -21 42 -19 93 6 125 19 24 26 26 102 26 45 1 109 7 142 14 92 21
148 20 179 -5z"/>
</g>
</svg>
