<?xml version="1.0" standalone="no"?>
<!DOCTYPE svg PUBLIC "-//W3C//DTD SVG 20010904//EN"
 "http://www.w3.org/TR/2001/REC-SVG-20010904/DTD/svg10.dtd">
<svg version="1.0" xmlns="http://www.w3.org/2000/svg"
 width="355.000000pt" height="331.000000pt" viewBox="0 0 355.000000 331.000000"
 preserveAspectRatio="xMidYMid meet">

<g transform="translate(0.000000,331.000000) scale(0.100000,-0.100000)"
fill="#000000" stroke="none">
<path d="M1653 2892 c-128 -46 -216 -153 -229 -280 -7 -68 2 -76 89 -80 93 -5
113 5 120 59 10 77 91 132 160 110 82 -27 120 -121 78 -189 -23 -35 -64 -57
-125 -67 -49 -8 -83 -45 -91 -98 -4 -23 -5 -118 -3 -210 2 -136 6 -170 18
-177 19 -13 161 -13 180 0 12 7 16 39 18 153 l3 145 41 18 c58 26 125 96 156
162 38 81 38 193 1 272 -73 156 -260 238 -416 182z m222 -90 c91 -47 139 -126
139 -227 0 -112 -53 -189 -166 -239 l-58 -26 0 -140 0 -140 -30 0 -30 0 0 153
c0 107 4 158 13 169 6 9 31 18 55 21 61 7 116 49 147 110 30 61 32 116 6 172
-78 168 -314 164 -386 -7 -17 -43 -55 -54 -55 -18 0 67 89 161 180 191 41 14
142 3 185 -19z"/>
<path d="M685 2465 c-15 -19 -49 -48 -76 -65 -29 -18 -49 -37 -49 -48 0 -10
20 -34 44 -54 23 -20 50 -52 59 -71 18 -37 41 -52 61 -40 7 5 28 25 46 46 18
21 50 47 72 58 21 11 38 27 38 36 0 9 -21 37 -47 62 -27 25 -56 61 -65 79 -22
42 -50 41 -83 -3z m61 -106 c18 -20 18 -21 -6 -40 -25 -18 -25 -18 -43 3 -16
20 -16 22 -1 39 22 24 27 24 50 -2z"/>
<path d="M2791 2449 c-11 -12 -48 -35 -83 -53 -75 -37 -82 -56 -39 -100 18
-18 40 -55 50 -82 24 -62 47 -67 99 -23 21 17 58 39 83 48 59 22 63 48 15 101
-19 21 -40 57 -46 78 -14 55 -45 67 -79 31z m32 -122 c14 -22 14 -25 -12 -40
-27 -16 -28 -16 -40 10 -11 23 -10 29 5 40 24 18 29 17 47 -10z"/>
<path d="M2560 2254 c-138 -36 -279 -135 -354 -248 -20 -30 -36 -58 -36 -63 0
-5 15 -17 34 -25 l33 -16 23 40 c56 100 193 201 315 233 32 8 60 17 62 19 6 6
-8 76 -16 75 -3 0 -31 -7 -61 -15z"/>
<path d="M895 2224 c-3 -20 -5 -37 -3 -38 2 -1 36 -14 76 -29 139 -50 247
-149 307 -280 25 -53 28 -57 53 -51 53 13 54 18 7 111 -77 155 -233 276 -406
317 -24 5 -27 3 -34 -30z"/>
<path d="M1715 1901 c-45 -20 -70 -60 -70 -112 0 -42 5 -53 33 -81 28 -28 39
-33 82 -33 43 0 54 5 82 33 28 28 33 39 33 82 0 42 -5 54 -31 81 -33 33 -92
46 -129 30z m75 -86 c26 -32 -13 -81 -47 -59 -35 22 -23 74 17 74 10 0 23 -7
30 -15z"/>
<path d="M1220 1718 l-235 -50 -132 -131 c-73 -73 -133 -139 -133 -148 0 -24
19 -37 75 -49 28 -6 67 -15 88 -21 l37 -10 0 -308 c0 -235 3 -311 13 -319 6
-5 195 -65 420 -132 l407 -122 408 122 c224 67 413 127 420 132 9 8 12 84 12
318 l0 308 87 21 c94 24 113 34 113 60 0 9 -60 75 -132 148 l-133 131 -240 51
c-132 27 -243 47 -246 43 -4 -4 -9 -21 -12 -39 -7 -36 -27 -28 176 -69 48 -10
87 -21 87 -24 0 -3 -121 -31 -270 -62 l-270 -57 -270 57 c-149 31 -270 59
-270 62 0 3 59 18 132 33 72 15 133 28 134 30 6 6 -13 71 -21 73 -6 1 -116
-20 -245 -48z m130 -203 c173 -36 321 -67 328 -70 8 -3 -11 -37 -54 -97 -37
-51 -70 -97 -75 -102 -4 -5 -159 29 -359 79 l-352 88 88 88 c48 48 92 86 98
84 6 -3 153 -34 326 -70z m1327 -101 c-5 -5 -676 -174 -690 -174 -20 0 -160
200 -145 205 7 3 159 36 338 73 l325 69 87 -85 c48 -47 86 -87 85 -88z m-962
-882 c-5 -5 -685 196 -705 208 -7 4 -9 101 -8 277 l3 271 278 -70 c153 -38
284 -67 291 -65 8 3 42 46 77 96 l64 90 3 -401 c1 -221 0 -403 -3 -406z m212
639 l21 -26 286 71 286 71 0 -273 0 -273 -97 -30 c-286 -87 -603 -181 -612
-181 -8 0 -11 127 -11 407 l0 408 53 -74 c28 -41 62 -86 74 -100z"/>
</g>
</svg>
